<svg width="263" height="40" fill="none" xmlns="http://www.w3.org/2000/svg"><path d="M53.185 35.242V9.16h15.861v26.082H64.58V13.303h-6.929v21.939h-4.466zm21.794 0V9.16h15.648v3.896H79.373v6.788h10.004v3.858H79.373v7.644h11.254v3.896H74.979zm26.758 0V13.303h-6.841V9.16h18.149v4.143h-6.842v21.939h-4.466zm15.709-.001V9.16h8.681a9.884 9.884 0 014.561 1 7.348 7.348 0 013.018 2.804 8.145 8.145 0 011.072 4.235 8.054 8.054 0 01-1.091 4.215 7.434 7.434 0 01-3.018 2.824 9.767 9.767 0 01-4.538 1h-4.208V35.24h-4.477zm4.466-14.04h4.215a4.105 4.105 0 002.984-1.091 3.867 3.867 0 001.14-2.911 3.871 3.871 0 00-1.14-2.93 4.145 4.145 0 00-2.984-1.073h-4.204l-.011 8.005zm24.949 14.398a9.371 9.371 0 01-4.329-.947 6.678 6.678 0 01-2.824-2.66 8.172 8.172 0 01-.977-4.11V16.519a8.167 8.167 0 01.98-4.09 6.687 6.687 0 012.821-2.679 10.47 10.47 0 018.7 0 6.724 6.724 0 012.805 2.68 8.102 8.102 0 01.98 4.055v11.403a8.167 8.167 0 01-.98 4.09 6.721 6.721 0 01-2.805 2.66c-1.358.67-2.858 1-4.371.962zm0-3.93c1.216 0 2.133-.327 2.752-.981.618-.654.927-1.589.927-2.805V16.518c0-1.235-.308-2.178-.927-2.82-.62-.642-1.521-.965-2.752-.965-1.232 0-2.133.323-2.752.965-.62.643-.927 1.585-.927 2.82v11.365c0 1.211.315 2.146.946 2.805.631.659 1.542.986 2.733.98zm21.577 3.93a9.592 9.592 0 01-4.375-.946 6.845 6.845 0 01-2.893-2.661 7.927 7.927 0 01-1.018-4.09V16.52a7.908 7.908 0 011.003-4.109 6.893 6.893 0 012.893-2.66 9.59 9.59 0 014.374-.947 9.468 9.468 0 014.379.946 7.076 7.076 0 012.877 2.661 7.834 7.834 0 011.061 4.109h-4.512c0-1.236-.327-2.178-.984-2.82-.658-.643-1.589-.966-2.805-.966-1.217 0-2.155.323-2.821.965-.665.643-.999 1.57-.999 2.787v11.402c0 1.212.331 2.148.999 2.805.669.658 1.608.98 2.821.98 1.212 0 2.151-.326 2.805-.98.653-.654.984-1.593.984-2.805h4.512a7.875 7.875 0 01-1.034 4.07 6.99 6.99 0 01-2.877 2.7 9.472 9.472 0 01-4.39.942zm19.046-.357V13.303h-6.841V9.16h18.149v4.143h-6.808v21.939h-4.5zm15.716-.001V9.16h8.685a9.85 9.85 0 014.561 1 7.362 7.362 0 013.022 2.805 8.185 8.185 0 011.072 4.234 8.053 8.053 0 01-1.091 4.215 7.422 7.422 0 01-3.041 2.824 9.741 9.741 0 01-4.534 1h-4.219V35.24H203.2zm4.466-14.04h4.219a4.117 4.117 0 002.984-1.09 3.866 3.866 0 001.14-2.912 3.872 3.872 0 00-1.14-2.93 4.152 4.152 0 00-2.984-1.073h-4.219v8.005zm24.945 14.398a9.385 9.385 0 01-4.344-.947 6.663 6.663 0 01-2.82-2.66 8.127 8.127 0 01-.985-4.09V16.518a8.127 8.127 0 01.985-4.09 6.662 6.662 0 012.82-2.679 10.47 10.47 0 018.7 0 6.68 6.68 0 012.805 2.68 8.06 8.06 0 01.984 4.055v11.403a8.135 8.135 0 01-.984 4.09 6.676 6.676 0 01-2.805 2.66 9.34 9.34 0 01-4.356.962zm0-3.93c1.211 0 2.127-.327 2.748-.981.621-.654.931-1.589.931-2.805V16.518c0-1.235-.311-2.178-.931-2.82-.619-.642-1.52-.965-2.748-.965-1.228 0-2.132.323-2.752.965-.619.643-.931 1.585-.931 2.82v11.365c0 1.211.316 2.146.946 2.805.631.659 1.544.986 2.737.98zm13.303 3.572V9.16h4.075v12.755c0 .833-.023 1.764-.073 2.786a117.508 117.508 0 01-.178 3.003c-.073.977-.13 1.82-.179 2.535l7.161-21.08h5.469v26.082h-4.074v-12.36c0-.836.023-1.787.072-2.858.049-1.072.114-2.133.198-3.182.083-1.049.159-1.942.231-2.68l-7.255 21.08h-5.447zm8.149-28.654c-1.857 0-3.359-.488-4.504-1.464a4.782 4.782 0 01-1.745-3.824h3.467a2.493 2.493 0 00.76 1.901 2.775 2.775 0 002.003.715 2.835 2.835 0 002.018-.723 2.457 2.457 0 00.76-1.9h3.463a4.785 4.785 0 01-1.714 3.824c-1.14.983-2.649 1.473-4.527 1.47h.019z" fill="#fff"/><path d="M38.19 10.486v9.02l-4.856-2.66-8.233-4.512-6.04-3.31-.007-.005V.008L19.06 0l8.233 4.512 6.04 3.31 4.857 2.664z" fill="#097A3A"/><path d="M19.054.008v9.02l-6.032 3.306-4.778 2.619v6.617l2.585-1.414 8.225-4.508v9.023l-10.81 5.922L0 35.113V10.448l4.793-2.627L8.244 5.93l2.585-1.418L19.054.008z" fill="#109E4C"/><path d="M38.19 26.127v9.023L19.062 24.664l-.007-.004v-9.012l.007-.003 8.233 4.511 10.897 5.971z" fill="#097A3A"/><path d="M27.282 35.496l-8.229 4.508-.01-.008-8.218-4.5 8.217-4.508.011-.004 8.23 4.512z" fill="#109E4C"/></svg>